<svg width="147" height="150" viewBox="0 0 147 94" fill="none" xmlns="http://www.w3.org/2000/svg">
<rect x="27" y="16" width="6" height="120" rx="3" transform="rotate(-90 27 16)" fill="#9D1212"/>
<rect y="42" width="6" height="60" rx="3" transform="rotate(-90 0 42)" fill="#9D1212"/>
<rect x="27" y="68" width="6" height="60" rx="3" transform="rotate(-90 27 68)" fill="#9D1212"/>
<rect x="54" y="94" width="6" height="60" rx="3" transform="rotate(-90 54 94)" fill="#9D1212"/>
<rect x="84" width="6" height="16" rx="3" fill="#9D1212"/>
<rect x="141" y="10" width="6" height="84" rx="3" fill="#9D1212"/>
<rect x="27" y="10" width="6" height="32" rx="3" fill="#9D1212"/>
<rect x="54" y="36" width="6" height="32" rx="3" fill="#9D1212"/>
<rect x="81" y="62" width="6" height="32" rx="3" fill="#9D1212"/>
<rect x="27" y="62" width="6" height="32" rx="3" fill="#9D1212"/>
<rect y="36" width="6" height="32" rx="3" fill="#9D1212"/>
</svg>
