<svg width="188" height="121" viewBox="0 0 188 121" fill="none" xmlns="http://www.w3.org/2000/svg">
<path d="M40 38H90H140C152.15 38 162 47.8497 162 60C162 72.1503 152.15 82 140 82H40C27.8497 82 18 72.1503 18 60C18 47.8497 27.8497 38 40 38Z" stroke="#9D1212" stroke-width="6"/>
<path d="M52.9398 36.1248C52.9398 36.1248 53.5675 26.9539 47.5556 20C41.5436 13.0461 42.1713 3.87517 42.1713 3.87517" stroke="#9D1212" stroke-width="6"/>
<path d="M25.5808 43.0579C25.5808 43.0579 9.46507 38.6854 19.7206 25.5073C29.976 12.3293 13.8603 7.9568 13.8603 7.9568" stroke="#9D1212" stroke-width="6"/>
<path d="M133.244 113.742C133.244 113.742 133.872 104.571 127.86 97.6175C121.848 90.6636 122.475 81.4927 122.475 81.4927" stroke="#9D1212" stroke-width="6"/>
<path d="M102.437 3.85847C102.437 3.85847 92.1813 10.0782 97.5003 20.8289C102.819 31.5796 92.5635 37.7993 92.5635 37.7993" stroke="#9D1212" stroke-width="6"/>
<path d="M105.706 82.6901C105.706 82.6901 109.709 88.8263 103.039 91.8574C96.3684 94.8884 100.372 101.025 100.372 101.025" stroke="#9D1212" stroke-width="6"/>
<path d="M76.7811 10.5563C76.7811 10.5563 80.2659 18.476 73.0766 23.2905C65.8872 28.105 69.372 36.0247 69.372 36.0247" stroke="#9D1212" stroke-width="6"/>
<path d="M148.975 10.1697C148.975 10.1697 150.788 26.1488 134.949 23.3646C119.11 20.5804 120.923 36.5596 120.923 36.5596" stroke="#9D1212" stroke-width="6"/>
<path d="M32.9297 80.9104C32.9297 80.9104 48.9167 82.6534 42.7199 97.4933C36.5231 112.333 52.51 114.076 52.51 114.076" stroke="#9D1212" stroke-width="6"/>
<path d="M176.326 26.9903C176.326 26.9903 161.882 22.9801 167.378 36.9262C172.875 50.8723 158.431 46.8621 158.431 46.8621" stroke="#9D1212" stroke-width="6"/>
<path d="M159.474 73.3252C159.474 73.3252 171.463 74.9265 172.318 86.9912C173.172 99.0559 185.161 100.657 185.161 100.657" stroke="#9D1212" stroke-width="6"/>
<path d="M64.8283 82.0008C64.8283 82.0008 76.7718 83.9086 77.3175 95.9912C77.8632 108.074 89.8068 109.982 89.8068 109.982" stroke="#9D1212" stroke-width="6"/>
<path d="M17.3348 59.0069C17.3348 59.0069 7.07897 65.2266 12.398 75.9773C17.717 86.7279 7.46108 92.9477 7.46108 92.9477" stroke="#9D1212" stroke-width="6"/>
</svg>
