<svg width="150" height="150" viewBox="0 0 150 150" fill="none" xmlns="http://www.w3.org/2000/svg">
<circle cx="75" cy="75" r="72" stroke="#9D1212" stroke-width="6"/>
<rect x="53.3937" y="11" width="3.98647" height="77" rx="1.99324" transform="rotate(36.1235 53.3937 11)" fill="#9D1212"/>
<rect x="130.945" y="37.3363" width="3.98647" height="36.6615" rx="1.99324" transform="rotate(125.725 130.945 37.3363)" fill="#9D1212"/>
<rect x="137.917" y="51.2282" width="3.98647" height="50.8118" rx="1.99324" transform="rotate(125.725 137.917 51.2282)" fill="#9D1212"/>
<rect x="141.347" y="62.5724" width="3.98647" height="59.7565" rx="1.99324" transform="rotate(125.725 141.347 62.5724)" fill="#9D1212"/>
<rect x="142.686" y="72.4123" width="3.98647" height="66.3384" rx="1.99324" transform="rotate(125.725 142.686 72.4123)" fill="#9D1212"/>
<rect x="142.611" y="81.235" width="3.98647" height="71.4701" rx="1.99324" transform="rotate(125.725 142.611 81.235)" fill="#9D1212"/>
<rect x="140.523" y="89.2949" width="3.98647" height="74.1481" rx="1.99324" transform="rotate(125.725 140.523 89.2949)" fill="#9D1212"/>
<rect x="63.4335" y="8.24384" width="3.98647" height="94.0303" rx="1.99324" transform="rotate(36.1235 63.4335 8.24384)" fill="#9D1212"/>
<rect x="72.3174" y="7.67841" width="3.98647" height="105.647" rx="1.99324" transform="rotate(36.1235 72.3174 7.67841)" fill="#9D1212"/>
<rect x="80.5981" y="7.8266" width="3.98647" height="114.427" rx="1.99324" transform="rotate(36.1235 80.5981 7.8266)" fill="#9D1212"/>
<rect x="88.8769" y="8.62842" width="3.98647" height="122.911" rx="1.99324" transform="rotate(36.1235 88.8769 8.62842)" fill="#9D1212"/>
<rect x="95.7466" y="11.6064" width="3.98647" height="126.835" rx="1.99324" transform="rotate(36.1235 95.7466 11.6064)" fill="#9D1212"/>
</svg>
