<svg width="121" height="165" viewBox="0 0 121 165" fill="none" xmlns="http://www.w3.org/2000/svg">
<rect y="164" width="6" height="106" rx="3" transform="rotate(-90 0 164)" fill="#9D1212"/>
<rect x="93" y="85" width="6" height="78" rx="3" fill="#9D1212"/>
<rect x="77" y="113" width="6" height="22" rx="3" transform="rotate(-90 77 113)" fill="#9D1212"/>
<rect x="3" y="51.7714" width="6" height="122.661" rx="3" transform="rotate(-23.4778 3 51.7714)" fill="#9D1212"/>
<rect x="101" y="49.3018" width="6" height="121.657" rx="3" transform="rotate(23.48 101 49.3018)" fill="#9D1212"/>
<rect x="104.067" y="19" width="5" height="118.132" rx="2.5" transform="rotate(23.48 104.067 19)" fill="#9D1212"/>
<rect x="72.8677" y="30" width="3.71863" height="104.489" rx="1.85931" transform="rotate(13.2042 72.8677 30)" fill="#9D1212"/>
<rect x="33.7349" y="31.246" width="2" height="85.5348" rx="1" transform="rotate(-7.73554 33.7349 31.246)" fill="#9D1212"/>
<rect x="26.0906" y="33.5167" width="2" height="85.2204" rx="1" transform="rotate(-12.6485 26.0906 33.5167)" fill="#9D1212"/>
<circle cx="108.5" cy="12.5" r="10" stroke="#9D1212" stroke-width="5"/>
<rect x="17.1684" y="9.32784" width="17" height="25" rx="5" transform="rotate(-10.7106 17.1684 9.32784)" stroke="#9D1212" stroke-width="2"/>
<line x1="17.7712" y1="17.6576" x2="25.9158" y2="16.367" stroke="#9D1212" stroke-width="2"/>
<line x1="18.8435" y1="24.3029" x2="26.9881" y2="23.0123" stroke="#9D1212" stroke-width="2"/>
<line x1="29.7591" y1="41.0172" x2="33.9009" y2="40.3026" stroke="#9D1212" stroke-width="2"/>
<line x1="29.83" y1="47.7292" x2="33.9718" y2="47.0146" stroke="#9D1212" stroke-width="2"/>
<line x1="30.83" y1="53.7292" x2="34.9718" y2="53.0146" stroke="#9D1212" stroke-width="2"/>
</svg>
